<?xml version="1.0" encoding="UTF-8" standalone="no"?>
<svg width="11px" height="7px" viewBox="0 0 11 7" version="1.1" xmlns="http://www.w3.org/2000/svg" xmlns:xlink="http://www.w3.org/1999/xlink" xmlns:sketch="http://www.bohemiancoding.com/sketch/ns">
    <!-- Generator: Sketch 3.5.2 (25235) - http://www.bohemiancoding.com/sketch -->
    <title>icon-explore</title>
    <desc>Created with Sketch.</desc>
    <defs></defs>
    <g id="Marketing" stroke="none" stroke-width="1" fill="none" fill-rule="evenodd" sketch:type="MSPage">
        <g id="Desktop-HD" sketch:type="MSArtboardGroup" transform="translate(-983.000000, -1056.000000)" fill="#FFFFFF">
            <g id="Group-2" sketch:type="MSLayerGroup" transform="translate(923.000000, 1052.000000)">
                <g id="icon-explore" transform="translate(60.000000, 4.000000)" sketch:type="MSShapeGroup">
                    <path d="M10.7393932,1.6632 C11.0868689,1.2824 11.0868689,0.6657 10.7393932,0.2856 C10.3925646,-0.0952 9.82961514,-0.0952 9.48213944,0.2856 L6.47068339,3.5847 C6.47068339,3.5847 6.03577254,4.22023611 5.49999996,4.22023611 C4.96422737,4.22023611 4.52947837,3.5847 4.52947837,3.5847 L1.51802232,0.2856 C1.17054663,-0.0952 0.607597171,-0.0952 0.260768541,0.2856 C0.0867071575,0.476 -1.59872116e-14,0.7252 -1.59872116e-14,0.9744 C-1.59872116e-14,1.2236 0.0867071575,1.4728 0.260768541,1.6632 L4.87113046,6.7144 C5.21860616,7.0952 5.78155561,7.0952 6.12903131,6.7144 L10.7393932,1.6632 L10.7393932,1.6632 Z" id="Arrow"></path>
                </g>
            </g>
        </g>
    </g>
</svg>