<svg xmlns="http://www.w3.org/2000/svg" viewBox="0 0 53 53" class="door-icon"><rect x="27" y="29" width="3" height="2" class="door-icon-path"/><path d="M45 51V1c0-0.1 0-0.2-0.1-0.4 0 0 0 0 0-0.1 0-0.1-0.1-0.2-0.2-0.3 0 0 0 0 0 0 0 0-0.1-0.1-0.1-0.1 -0.1 0-0.1-0.1-0.2-0.1 0 0 0 0 0 0 -0.1 0-0.2-0.1-0.3-0.1C44 0 44 0 44 0H10C9.4 0 9 0.4 9 1v50H4v2h6 34 5v-2H45zM25 47.2V8.2l18-5.8V50.8L25 47.2zM11 2h26.7L23.7 6.5C23.3 6.7 23 7.1 23 7.5V48c0 0.5 0.3 0.9 0.8 1L33.9 51H11V2z" class="door-icon-path"/></svg>
