<?xml version="1.0" standalone="no"?>
<!DOCTYPE svg PUBLIC "-//W3C//DTD SVG 20010904//EN"
 "http://www.w3.org/TR/2001/REC-SVG-20010904/DTD/svg10.dtd">
<svg version="1.0" xmlns="http://www.w3.org/2000/svg"
 width="756.000000pt" height="756.000000pt" viewBox="0 0 756.000000 756.000000"
 preserveAspectRatio="xMidYMid meet">
<metadata>
Created by potrace 1.11, written by Peter Selinger 2001-2013
</metadata>
<g transform="translate(0.000000,756.000000) scale(0.100000,-0.100000)"
fill="#000000" stroke="none">
<path d="M3007 7535 c170 -31 281 -88 320 -166 35 -68 43 -236 50 -986 l6
-673 -757 0 -756 0 0 -195 0 -196 298 4 297 3 88 38 c170 73 427 123 685 133
l143 6 -5 -139 c-3 -76 -8 -335 -11 -574 -7 -587 -43 -2074 -61 -2516 l-7
-160 89 -27 c185 -56 208 -59 558 -64 l329 -5 -7 158 c-22 525 -75 2816 -76
3239 l0 90 142 -7 c268 -13 491 -57 685 -134 l111 -44 286 0 286 0 0 195 0
195 -756 0 -756 0 5 713 c6 677 13 859 37 933 24 72 141 139 302 173 l93 20
-845 -1 c-724 0 -835 -2 -773 -13z"/>
<path d="M1873 4013 c3 -1080 4 -1111 25 -1218 43 -224 127 -455 226 -622 239
-402 642 -693 1130 -818 251 -64 276 -65 1309 -65 l932 0 50 24 c28 12 67 41
87 64 73 81 68 -58 68 1944 l0 1798 -265 0 -265 0 0 -1650 0 -1651 -797 4
-798 3 -115 28 c-210 51 -406 135 -550 237 -237 167 -407 433 -483 754 -21 88
-21 109 -24 1183 l-4 1092 -265 0 -265 0 4 -1107z"/>
<path d="M3266 1125 c-3 -9 -6 -40 -6 -70 0 -49 16 -83 256 -546 142 -272 260
-497 263 -501 3 -4 123 219 267 495 234 450 261 506 256 540 l-4 37 -247 0
c-349 0 -610 19 -757 56 -14 4 -23 0 -28 -11z"/>
</g>
</svg>
