<svg xmlns="http://www.w3.org/2000/svg" viewbox="0 0 475 475" class="info-icon"><path d="M238 0C107 0 0 107 0 238s107 237 238 237 237-106 237-237S369 0 238 0zM238 432c-107 0-194-87-194-194S131 44 238 44s194 87 194 194S345 432 238 432z" class="info-icon-path"/><path d="M270 323l-20 9 26-133c3-14-12-29-28-20l-49 27c-9 5-12 17-7 26s17 12 26 7l12-6 -25 127c-2 11 7 23 19 23 3 0 6-1 8-2l53-23c10-4 14-15 10-25S280 319 270 323z" class="info-icon-path"/><path d="M257 143c15 0 27-12 27-27s-12-27-27-27 -27 12-27 27S242 143 257 143z" class="info-icon-path"/></svg>
